# xmcd CD database file generated by Grip 2.96
# 
# Track frame offsets:
#       150
#       12732
#       30649
#       48808
#       59481
#       72685
#       86270
#       101267
#       112123
# 
# Disc length: 1715 seconds
# 
# Revision: 0
# Processed by: cddbd v1.4PL0 Copyright (c) Steve Scherf et al.
# Submitted via: Grip 2.96
# 
DISCID=7606b109
DTITLE=Halden Wofford and the Hi-Beams - Live! at the Skylark Lounge
DYEAR=1900
DGENRE=
TTITLE0=Swingin' at the Skylark Lounge
TTITLE1=Jambalaya
TTITLE2=Bye Bye Baby
TTITLE3=Why Baby Why?
TTITLE4=Yodellin' Rhythm and Blues
TTITLE5=Always Late
TTITLE6=Flippity Flop Flop
TTITLE7=Live Fast Love Hard Die Young
TTITLE8=Bar Demo: Mansion on the Hill
EXTD=
EXTT0=
EXTT1=
EXTT2=
EXTT3=
EXTT4=
EXTT5=
EXTT6=
EXTT7=
EXTT8=
PLAYORDER=
